<mxfile host="Electron" modified="2024-08-01T15:25:30.198Z" agent="Mozilla/5.0 (Windows NT 10.0; Win64; x64) AppleWebKit/537.36 (KHTML, like Gecko) draw.io/24.5.3 Chrome/124.0.6367.207 Electron/30.0.6 Safari/537.36" etag="NUsFYY1ejkwhMt36PMV5" version="24.5.3" type="device">
  <diagram name="第 1 页" id="4W-yy3hXio1PYK0izE2a">
    <mxGraphModel dx="1276" dy="614" grid="1" gridSize="10" guides="1" tooltips="1" connect="1" arrows="1" fold="1" page="1" pageScale="1" pageWidth="827" pageHeight="1169" math="0" shadow="0">
      <root>
        <mxCell id="0" />
        <mxCell id="1" parent="0" />
        <mxCell id="DF1sutE61C37PgX-AiIt-1" value="部署到Ubuntu上接2" style="ellipse;whiteSpace=wrap;html=1;" parent="1" vertex="1">
          <mxGeometry x="40" y="30" width="190" height="80" as="geometry" />
        </mxCell>
        <mxCell id="c0bn7u9v5Ux_KrQKk2Ga-3" value="" style="edgeStyle=orthogonalEdgeStyle;rounded=0;orthogonalLoop=1;jettySize=auto;html=1;" edge="1" parent="1" source="c0bn7u9v5Ux_KrQKk2Ga-1" target="c0bn7u9v5Ux_KrQKk2Ga-2">
          <mxGeometry relative="1" as="geometry" />
        </mxCell>
        <mxCell id="c0bn7u9v5Ux_KrQKk2Ga-1" value="pip install uwsgi" style="rounded=0;whiteSpace=wrap;html=1;" vertex="1" parent="1">
          <mxGeometry x="330" y="110" width="220" height="50" as="geometry" />
        </mxCell>
        <mxCell id="c0bn7u9v5Ux_KrQKk2Ga-5" value="" style="edgeStyle=orthogonalEdgeStyle;rounded=0;orthogonalLoop=1;jettySize=auto;html=1;" edge="1" parent="1" source="c0bn7u9v5Ux_KrQKk2Ga-2" target="c0bn7u9v5Ux_KrQKk2Ga-4">
          <mxGeometry relative="1" as="geometry" />
        </mxCell>
        <mxCell id="c0bn7u9v5Ux_KrQKk2Ga-2" value="&lt;div&gt;root@hcss-ecs-18d9:~# cat /srv/flaskBlog/uwsgi.ini&amp;nbsp;&lt;/div&gt;&lt;div&gt;[uwsgi]&lt;/div&gt;&lt;div&gt;# 项目路径&lt;/div&gt;&lt;div&gt;chdir&amp;nbsp; &amp;nbsp;= /srv/flaskBlog/&lt;/div&gt;&lt;div&gt;# flask 的 uwsgi文件&lt;/div&gt;&lt;div&gt;wsgi-file&amp;nbsp; &amp;nbsp;= /srv/flaskBlog/app.py&lt;/div&gt;&lt;div&gt;# 回调的app对象&lt;/div&gt;&lt;div&gt;callable&amp;nbsp; &amp;nbsp; = app&lt;/div&gt;&lt;div&gt;# python 的虚拟环境的路径&lt;/div&gt;&lt;div&gt;home&amp;nbsp; &amp;nbsp; = /root/.virtualenvs/test_env&lt;/div&gt;&lt;div&gt;&lt;br&gt;&lt;/div&gt;&lt;div&gt;# 进程的相关设置&lt;/div&gt;&lt;div&gt;# 主进程&lt;/div&gt;&lt;div&gt;master&amp;nbsp; = true&lt;/div&gt;&lt;div&gt;# 最大的工作进程&lt;/div&gt;&lt;div&gt;processes&amp;nbsp; &amp;nbsp;= 10&lt;/div&gt;&lt;div&gt;&lt;br&gt;&lt;/div&gt;&lt;div&gt;http&amp;nbsp; &amp;nbsp; = :5000 监听5000端口（或监听socket文件，与nginx配合）root@hcss-ecs-18d9:&lt;/div&gt;" style="rounded=0;whiteSpace=wrap;html=1;" vertex="1" parent="1">
          <mxGeometry x="252.5" y="290" width="375" height="350" as="geometry" />
        </mxCell>
        <mxCell id="c0bn7u9v5Ux_KrQKk2Ga-4" value="uwsgi --ini uwsgi.ini" style="rounded=0;whiteSpace=wrap;html=1;" vertex="1" parent="1">
          <mxGeometry x="296.25" y="730" width="287.5" height="70" as="geometry" />
        </mxCell>
      </root>
    </mxGraphModel>
  </diagram>
</mxfile>
